<?xml version="1.0" encoding="UTF-8"?>
<svg width="32" height="32" viewBox="0 0 32 32" version="1.1" xmlns="http://www.w3.org/2000/svg">
    <!-- Calendar Icon for Oracle Analytics Cloud -->

    <!-- Calendar background -->
    <rect x="4" y="6" width="24" height="22" rx="2" fill="#ffffff" stroke="#333333" stroke-width="2"/>

    <!-- Calendar header (month bar) -->
    <rect x="4" y="6" width="24" height="6" rx="2" fill="#0572ce"/>

    <!-- Calendar binding rings -->
    <circle cx="9" cy="6" r="1.5" fill="#666666"/>
    <circle cx="16" cy="6" r="1.5" fill="#666666"/>
    <circle cx="23" cy="6" r="1.5" fill="#666666"/>

    <!-- Calendar grid lines -->
    <!-- Vertical lines -->
    <line x1="10" y1="14" x2="10" y2="26" stroke="#dddddd" stroke-width="1"/>
    <line x1="14" y1="14" x2="14" y2="26" stroke="#dddddd" stroke-width="1"/>
    <line x1="18" y1="14" x2="18" y2="26" stroke="#dddddd" stroke-width="1"/>
    <line x1="22" y1="14" x2="22" y2="26" stroke="#dddddd" stroke-width="1"/>

    <!-- Horizontal lines -->
    <line x1="6" y1="14" x2="26" y2="14" stroke="#333333" stroke-width="1"/>
    <line x1="6" y1="18" x2="26" y2="18" stroke="#dddddd" stroke-width="1"/>
    <line x1="6" y1="22" x2="26" y2="22" stroke="#dddddd" stroke-width="1"/>

    <!-- Sample task dots -->
    <circle cx="8" cy="16" r="1.5" fill="#d32f2f"/>
    <circle cx="12" cy="16" r="1.5" fill="#388e3c"/>
    <circle cx="20" cy="20" r="1.5" fill="#f57c00"/>
    <circle cx="24" cy="24" r="1.5" fill="#1976d2"/>
</svg>
